<svg width="16" height="10" viewBox="0 0 16 10" fill="#000000" xmlns="http://www.w3.org/2000/svg">
  <path
    d="M7.85938 9.35156C8.05208 9.34635 8.23177 9.30729 8.39844 9.23438C8.5651 9.16146 8.72656 9.04688 8.88281 8.89062L14.6562 2.97656C14.8906 2.74219 15.0078 2.45573 15.0078 2.11719C15.0078 1.88281 14.9505 1.67188 14.8359 1.48438C14.7266 1.29167 14.5781 1.14062 14.3906 1.03125C14.2031 0.916667 13.9948 0.859375 13.7656 0.859375C13.4219 0.859375 13.1172 0.992188 12.8516 1.25781L7.54688 6.73438H8.17969L2.85938 1.25781C2.59375 0.992188 2.28646 0.859375 1.9375 0.859375C1.70833 0.859375 1.5 0.916667 1.3125 1.03125C1.125 1.14062 0.973958 1.29167 0.859375 1.48438C0.75 1.67188 0.695312 1.88281 0.695312 2.11719C0.695312 2.28385 0.723958 2.4401 0.78125 2.58594C0.84375 2.72656 0.932292 2.85677 1.04688 2.97656L6.82812 8.89062C7.14062 9.19792 7.48438 9.35156 7.85938 9.35156Z"
    fill="#676768" />
</svg>