<svg width="16" height="13" viewBox="0 0 16 13" fill="#000000" xmlns="http://www.w3.org/2000/svg">
<path d="M16 6.33594C16 6.0026 15.8854 5.72396 15.6562 5.5L10.5703 0.421875C10.4505 0.302083 10.3229 0.213542 10.1875 0.15625C10.0521 0.09375 9.91406 0.0625 9.77344 0.0625C9.4401 0.0625 9.17188 0.166667 8.96875 0.375C8.76562 0.578125 8.66406 0.830729 8.66406 1.13281C8.66406 1.30469 8.69531 1.45833 8.75781 1.59375C8.82552 1.72396 8.91146 1.84115 9.01562 1.94531L10.7656 3.70312L13.3516 6.07812L13.8281 5.36719L10.7969 5.20312H1.96094C1.61198 5.20312 1.32812 5.30729 1.10938 5.51562C0.895833 5.72396 0.789062 5.9974 0.789062 6.33594C0.789062 6.67448 0.895833 6.94792 1.10938 7.15625C1.32812 7.36458 1.61198 7.46875 1.96094 7.46875H10.7969L13.8281 7.30469L13.3516 6.59375L10.7656 8.96875L9.01562 10.7188C8.91146 10.8229 8.82552 10.9427 8.75781 11.0781C8.69531 11.2083 8.66406 11.3594 8.66406 11.5312C8.66406 11.8333 8.76562 12.0859 8.96875 12.2891C9.17188 12.4974 9.4401 12.6016 9.77344 12.6016C10.0651 12.6016 10.3281 12.4844 10.5625 12.25L15.6562 7.17188C15.8854 6.94271 16 6.66406 16 6.33594Z" fill="#676768"/>
</svg>
